<svg xmlns="http://www.w3.org/2000/svg" xmlns:xlink="http://www.w3.org/1999/xlink" id="Ebene_1" x="0" y="0" enable-background="new 0 0 400 400" version="1.1" viewBox="0 0 400 400" xml:space="preserve"><metadata><?xpacket begin="﻿" id="W5M0MpCehiHzreSzNTczkc9d"?><?xpacket end="w"?></metadata><rect width="400" height="400" fill="#00B2DC"/><g><rect width="400" height="229.2" y="113.7" fill="none"/><path fill="#FFF" d="M146.2,254c0-2.8-0.4-5.3-1.2-7.5c-0.8-2.2-2.3-4.4-4.6-6.3c-2.3-2-5.5-4-9.6-5.9c-4.1-2-9.5-4-16.2-6.2 c-7.8-2.6-15.3-5.5-22.6-8.8c-7.2-3.3-13.7-7.1-19.3-11.6c-5.6-4.5-10.1-9.7-13.5-15.7c-3.4-6-5.1-13-5.1-20.9 c0-7.6,1.7-14.5,5.1-20.7c3.4-6.1,8.2-11.4,14.3-15.7c6.1-4.3,13.3-7.6,21.7-10c8.3-2.4,17.4-3.5,27.3-3.5c9.7,0,18.6,1.3,26.7,3.9 c8.1,2.6,15.1,6.3,21,11.1c5.9,4.8,10.4,10.6,13.7,17.4c3.3,6.8,4.9,14.4,4.9,22.8h-42.7c0-3.3-0.5-6.4-1.5-9.2 c-1-2.8-2.6-5.2-4.6-7.2c-2.1-2-4.6-3.6-7.7-4.7c-3.1-1.1-6.7-1.7-10.8-1.7c-4.1,0-7.7,0.5-10.7,1.4c-3.1,0.9-5.7,2.2-7.8,3.9 c-2.1,1.7-3.6,3.6-4.7,5.7c-1.1,2.2-1.6,4.5-1.6,6.9c0,2.7,0.8,5.1,2.3,7.3c1.5,2.2,3.7,4.2,6.5,6.1c2.8,1.9,6.2,3.7,10.3,5.4 c4,1.7,8.6,3.3,13.6,4.9c9.4,3,17.9,6.3,25.3,10c7.4,3.7,13.7,7.9,18.7,12.6c5.1,4.7,9,10.1,11.6,16c2.6,5.9,4,12.7,4,20.1 c0,8-1.6,15.1-4.7,21.3c-3.1,6.2-7.6,11.5-13.3,15.7c-5.7,4.2-12.7,7.4-20.8,9.6c-8.1,2.2-17.1,3.3-27,3.3 c-6.1,0-12.2-0.5-18.2-1.5c-6-1-11.8-2.6-17.3-4.7c-5.5-2.1-10.6-4.8-15.4-8c-4.8-3.2-8.9-7.1-12.3-11.5c-3.5-4.5-6.2-9.6-8.2-15.3 c-2-5.7-3-12-3-19h43c0,5.2,0.7,9.6,2.1,13.1c1.4,3.5,3.4,6.4,6.1,8.6s6,3.8,9.8,4.7c3.9,0.9,8.3,1.4,13.4,1.4 c4.1,0,7.5-0.5,10.4-1.4c2.9-0.9,5.3-2.2,7.1-3.8c1.9-1.6,3.2-3.4,4.1-5.6C145.8,258.6,146.2,256.3,146.2,254z"/><path fill="#FFF" d="M211,301.2V123.5h63.8c11,0,20.8,1,29.5,3c8.7,2,16,5,22,9.1c6,4.1,10.6,9.2,13.8,15.3 c3.2,6.1,4.8,13.4,4.8,21.7c0,4.1-0.4,8-1.3,11.8c-0.9,3.8-2.3,7.3-4.3,10.7c-2,3.3-4.6,6.3-7.8,9c-3.2,2.6-7,4.8-11.6,6.5 c5.3,1.4,9.8,3.4,13.4,6c3.7,2.6,6.6,5.6,8.9,9c2.3,3.4,3.9,7.1,4.9,11c1,3.9,1.5,8,1.5,12c0,17.6-5.6,30.7-16.8,39.5 c-11.2,8.7-27.9,13.1-49.9,13.1H211z M253.9,197.6h22.3c9.4-0.1,16-1.8,20-5.1c4-3.3,6-8.3,6-14.8c0-7.5-2.2-12.9-6.5-16.2 c-4.3-3.3-11.3-4.9-20.9-4.9h-21V197.6z M253.9,225.6v42.6H282c4.3,0,8-0.5,11-1.6c3.1-1.1,5.5-2.5,7.4-4.3s3.3-4,4.2-6.4 c0.9-2.4,1.3-5.1,1.3-7.9c0-3.4-0.4-6.5-1.2-9.3c-0.8-2.8-2.1-5.1-3.9-7c-1.8-1.9-4.1-3.4-7-4.5c-2.8-1.1-6.3-1.6-10.4-1.6H253.9z"/></g></svg>